<svg width="580" height="400" xmlns="http://www.w3.org/2000/svg">
 <!-- Created with Method Draw - http://github.com/duopixel/Method-Draw/ -->
 <g>
  <title>background</title>
  <rect fill="#fff" id="canvas_background" height="402" width="582" y="-1" x="-1"/>
  <g display="none" overflow="visible" y="0" x="0" height="100%" width="100%" id="canvasGrid">
   <rect fill="url(#gridpattern)" stroke-width="0" y="0" x="0" height="100%" width="100%"/>
  </g>
 </g>
 <g>
  <title>Layer 1</title>
  <ellipse stroke="#2fa3dd" ry="160.00001" rx="160.499982" id="svg_1" cy="168.031456" cx="161.567694" stroke-width="1.5" fill="#2fa3dd"/>
  <rect stroke="#ffffff" id="svg_3" height="27" width="95.880682" y="61.08378" x="112.000001" stroke-width="1.5" fill="#ffffff"/>
  <rect id="svg_5" height="131" width="113" y="133.453125" x="103" fill-opacity="null" stroke-opacity="null" stroke-width="1.5" stroke="#ffffff" fill="#ffffff"/>
  <rect id="svg_6" height="8" width="12" y="221.453125" x="148" fill-opacity="null" stroke-opacity="null" stroke-width="1.5" stroke="#ffffff" fill="#ffffff"/>
  <ellipse stroke="#ffffff" ry="11.5" rx="56.499999" id="svg_7" cy="131.953125" cx="159.500005" fill-opacity="null" stroke-opacity="null" stroke-width="1.5" fill="#ffffff"/>
  <rect id="svg_8" height="76" width="48" y="78.453125" x="136" fill-opacity="null" stroke-opacity="null" stroke-width="1.5" stroke="#ffffff" fill="#ffffff"/>
  <ellipse stroke="#ffffff" ry="6.5" rx="47.973487" id="svg_9" cy="88.730996" cx="159.940754" fill-opacity="null" stroke-opacity="null" stroke-width="1.5" fill="#ffffff"/>
  <ellipse stroke="#ffffff" ry="3.5" rx="47.5" id="svg_10" cy="60.953125" cx="159.5" stroke-width="1.5" fill="#ffffff"/>
  <text stroke="#2fa3dd" transform="matrix(0.9279259165848863,0,0,1.6128997081785603,6.437400894533994,-102.72898786210067) " xml:space="preserve" text-anchor="start" font-family="'Courier New', Courier, monospace" font-size="63" id="svg_11" y="198.63311" x="107.441915" stroke-width="0" fill="#2fa3dd">1KG</text>
  <ellipse stroke="#ffffff" ry="2.095798" rx="14.5898" id="svg_15" cy="60.916569" cx="193.343881" stroke-width="1.5" fill="#ffffff"/>
  <ellipse stroke="#ffffff" transform="rotate(23.517620086669922 204.07005310058594,73.56827545166013) " ry="4.02293" rx="3.81241" id="svg_16" cy="73.568277" cx="204.070065" stroke-width="1.5" fill="#ffffff"/>
  <ellipse stroke="#ffffff" transform="rotate(23.517620086669922 180.9198760986328,61.75452041625976) " ry="4.02293" rx="3.81241" id="svg_22" cy="61.754527" cx="180.91989" stroke-width="1.5" fill="#ffffff"/>
 </g>
</svg>